# xmcd
#
# Track frame offsets: 
#        150
#        17022
#        30477
#        44407
#        59355
#        83530
#        98255
#        116185
#        128072
#        144025
#        155642
#
# Disc length: 2331 seconds
#
# Revision: 1
# Processed by: cddbd v1.5.1PL0 Copyright (c) Steve Scherf et al.
# Submitted via: ExactAudioCopy v0.95a5
#
DISCID=7e09190b
DTITLE=Seldom Scene - The New Seldom Scene Album
DYEAR=1976
DGENRE=Bluegrass
TTITLE0=Big Rig
TTITLE1=If That's The Way You Feel
TTITLE2=Easy Ride From Good Times To The Blues
TTITLE3=Paradise Valley
TTITLE4=California Earthquake
TTITLE5=Railroad Man
TTITLE6=Answer Your Call
TTITLE7=I Haven't Got The Right To Love You
TTITLE8=Song For Life
TTITLE9=Rebels Ye Rest
TTITLE10=Pictures From Life's Other Side
EXTD=John Duffey mandolin, lead guitar, vocals\nJohn Starling guitar a
EXTD=nd vocals\nMike Auldridge dobro, pedal steel, vocals\nBen Eldridg
EXTD=e banjo, dobro, vocals\nTom Gray bass and vocals\nwith guests:\nL
EXTD=inda Ronstadt vocals\nMark Cuff drums and percussion
EXTT0=
EXTT1=
EXTT2=
EXTT3=
EXTT4=
EXTT5=
EXTT6=
EXTT7=
EXTT8=
EXTT9=
EXTT10=
PLAYORDER=
